<?xml version="1.0" encoding="UTF-8"?>
<svg version="1.1" xmlns="http://www.w3.org/2000/svg" width="753" height="164">
<path d="M0 0 C9.11123332 -0.09339967 18.22229744 -0.16411489 27.33390808 -0.20724869 C31.56652955 -0.22796901 35.79881934 -0.25599512 40.03125 -0.30175781 C44.12915217 -0.34577979 48.22673891 -0.36925343 52.32485962 -0.37950897 C53.87469436 -0.38680082 55.42451529 -0.40103386 56.97421265 -0.42292023 C71.00596224 -0.6128918 85.10612036 0.82444746 97 9 C97.69480469 9.45246094 98.38960938 9.90492187 99.10546875 10.37109375 C107.43403379 16.13702339 114.17946199 25.36177805 116.55297852 35.32006836 C117.00395641 38.02371903 117.12935211 40.53429213 117.1328125 43.2734375 C117.13474609 44.7584375 117.13474609 44.7584375 117.13671875 46.2734375 C117.13285156 47.29695313 117.12898437 48.32046875 117.125 49.375 C117.12886719 50.39078125 117.13273438 51.4065625 117.13671875 52.453125 C117.11229478 71.25957831 110.16710234 88.71493531 96.78125 102.2421875 C91.50753012 107 91.50753012 107 89 107 C89 107.66 89 108.32 89 109 C79.77728412 115.6785184 69.9371352 120.49512572 58.71484375 122.60546875 C56.9776745 122.84547109 56.9776745 122.84547109 56 124 C47.25459043 125.39748589 38.31701318 125.13118852 29.48828125 125.09765625 C28.02426706 125.09578648 26.56025223 125.09436523 25.09623718 125.09336853 C21.28067231 125.08958729 17.46514673 125.07979562 13.64959717 125.06866455 C9.74101289 125.0583549 5.83242214 125.05385063 1.92382812 125.04882812 C-5.71746565 125.03816849 -13.35872728 125.02114624 -21 125 C-21.02205469 123.08859395 -21.03774967 121.17711386 -21.05078125 119.265625 C-21.06020752 118.20118164 -21.06963379 117.13673828 -21.0793457 116.04003906 C-20.99203169 112.69470329 -20.44828438 109.77672454 -19.62890625 106.55078125 C-15.87345142 91.31902967 -13.47881494 75.39168561 -11.4453125 59.84765625 C-11 57 -11 57 -10 56 C-9.72653686 54.47623271 -9.50899313 52.94233565 -9.31640625 51.40625 C-9.19330078 50.4575 -9.07019531 49.50875 -8.94335938 48.53125 C-8.81767578 47.5309375 -8.69199219 46.530625 -8.5625 45.5 C-7.77615426 39.24251856 -6.91522325 33.09109303 -5.4375 26.95507812 C-4.99416363 24.97391873 -4.69747334 23.01276231 -4.4375 21 C-4 18 -4 18 -3 17 C-2.62523502 14.52010985 -2.29424021 12.05204807 -2 9.5625 C-1.13276492 2.26552984 -1.13276492 2.26552984 0 0 Z M42 36 C41.86722656 36.71027344 41.73445313 37.42054687 41.59765625 38.15234375 C41.33275391 39.53099609 41.33275391 39.53099609 41.0625 40.9375 C40.88847656 41.85402344 40.71445313 42.77054688 40.53515625 43.71484375 C40 46 40 46 39 47 C38.72653686 48.52376729 38.50899313 50.05766435 38.31640625 51.59375 C38.19330078 52.5425 38.07019531 53.49125 37.94335938 54.46875 C37.81767578 55.4690625 37.69199219 56.469375 37.5625 57.5 C36.77414188 63.77349534 35.87566741 69.92157881 34.43041992 76.07958984 C33.9109181 78.39745788 33.60011469 80.69879578 33.375 83.0625 C33.189375 85.0115625 33.189375 85.0115625 33 87 C42.06501223 87.36805313 47.93573058 87.25560177 55.625 82.3125 C63.06241172 75.07080964 66.11058638 66.14810219 66.4375 55.9375 C66.28052963 49.01585421 65.09895445 43.99898818 60.0625 39.125 C55.65856954 36.72285611 52.23031191 35.75348646 47.1875 35.875 C46.21167969 35.89304688 45.23585938 35.91109375 44.23046875 35.9296875 C43.49441406 35.95289063 42.75835937 35.97609375 42 36 Z " fill="#FEFEFE" transform="translate(25,33)"/>
<path d="M0 0 C13.22161015 10.53187704 20.06504693 24.45417681 22 41 C22.54517597 47.86921721 21.4061948 54.28290878 20 61 C19.34 61 18.68 61 18 61 C17.9175 61.825 17.835 62.65 17.75 63.5 C16.83552731 67.76753921 15.07776822 71.19236894 13 75 C12.34 75 11.68 75 11 75 C10.731875 75.886875 10.46375 76.77375 10.1875 77.6875 C9.0749365 80.7909666 7.89804222 83.31110685 6 86 C5.34 86 4.68 86 4 86 C3.34 87.65 2.68 89.3 2 91 C1.34 91 0.68 91 0 91 C-0.2578125 91.72574219 -0.515625 92.45148438 -0.78125 93.19921875 C-2.05242499 96.12047667 -3.54016402 98.30872649 -5.5 100.8125 C-6.1084375 101.60269531 -6.716875 102.39289063 -7.34375 103.20703125 C-7.8903125 103.79871094 -8.436875 104.39039062 -9 105 C-9.66 105 -10.32 105 -11 105 C-11.26530518 105.58330078 -11.53061035 106.16660156 -11.80395508 106.76757812 C-13.0392789 109.07331421 -14.39217788 110.77525917 -16.13671875 112.71875 C-16.75853027 113.41355469 -17.3803418 114.10835938 -18.02099609 114.82421875 C-18.67406738 115.54222656 -19.32713867 116.26023438 -20 117 C-20.64146973 117.70769531 -21.28293945 118.41539062 -21.94384766 119.14453125 C-23.8882044 121.27431977 -25.84794783 123.38883946 -27.8125 125.5 C-28.47958984 126.22703125 -29.14667969 126.9540625 -29.83398438 127.703125 C-30.47271484 128.38890625 -31.11144531 129.0746875 -31.76953125 129.78125 C-32.34292236 130.40064453 -32.91631348 131.02003906 -33.50708008 131.65820312 C-35 133 -35 133 -37 133 C-37 133.66 -37 134.32 -37 135 C-38.32 135 -39.64 135 -41 135 C-41 134.34 -41 133.68 -41 133 C-41.99 132.67 -42.98 132.34 -44 132 C-47 128.55555556 -47 128.55555556 -47 126 C-47.66 126 -48.32 126 -49 126 C-50.5078125 124.3203125 -50.5078125 124.3203125 -52.125 122.125 C-52.66382813 121.40570313 -53.20265625 120.68640625 -53.7578125 119.9453125 C-55 118 -55 118 -55 116 C-55.66 116 -56.32 116 -57 116 C-57.91795039 114.69368599 -58.82190182 113.37640977 -59.67578125 112.02734375 C-61.30330833 109.535643 -63.05253243 107.14995578 -64.8125 104.75 C-65.51246094 103.78835937 -66.21242188 102.82671875 -66.93359375 101.8359375 C-68.19213896 100.10870911 -69.45423591 98.38405198 -70.72265625 96.6640625 C-74.5045546 91.42483688 -77.89086997 85.98990987 -81.1875 80.4375 C-81.60370605 79.74124512 -82.01991211 79.04499023 -82.44873047 78.32763672 C-90.96856936 63.78215286 -96.22524978 47.80663923 -92.12109375 30.92578125 C-89.83993955 22.95964074 -86.23793025 16.38054571 -81 10 C-80.45472656 9.29359375 -79.90945313 8.5871875 -79.34765625 7.859375 C-59.32573431 -16.826477 -24.7425378 -17.20898898 0 0 Z M-43.75 21 C-44.92046875 21.37125 -46.0909375 21.7425 -47.296875 22.125 C-48.63492188 22.558125 -48.63492188 22.558125 -50 23 C-50 23.66 -50 24.32 -50 25 C-50.5775 25.226875 -51.155 25.45375 -51.75 25.6875 C-56.65438729 28.54839259 -59.54016008 33.60174304 -61 39 C-62.04486273 46.47769231 -60.20261261 52.28023247 -57 59 C-56.34 59 -55.68 59 -55 59 C-54.79375 59.556875 -54.5875 60.11375 -54.375 60.6875 C-51.88425376 64.87648231 -49.08486407 67.34162187 -44.4765625 68.796875 C-36.04170628 70.54527657 -29.33715352 70.78396379 -21.9375 66.0625 C-19.69589415 64.57067915 -19.69589415 64.57067915 -18 63 C-18 62.34 -18 61.68 -18 61 C-17.34 61 -16.68 61 -16 61 C-10.57415917 53.67511488 -10.02019913 46.93664532 -11 38 C-12.30599407 32.27755271 -15.89835405 27.26316271 -20.6328125 23.80859375 C-28.38874316 19.09590943 -35.1106146 18.23539667 -43.75 21 Z " fill="#FEFEFE" transform="translate(543,21)"/>
<path d="M0 0 C1.00119873 -0.0093457 2.00239746 -0.01869141 3.03393555 -0.02832031 C15.28690378 0.02398692 25.79993364 1.55489091 34.984375 10.24609375 C41.41423859 17.27377524 43.16798878 24.07177483 42.78125 33.546875 C42.22118137 39.18756622 41.0248383 44.70613676 39.875 50.25 C39.47065222 52.26914691 39.07473142 54.29000075 38.6875 56.3125 C38.50832031 57.23160156 38.32914062 58.15070313 38.14453125 59.09765625 C38.01111328 60.16306641 38.01111328 60.16306641 37.875 61.25 C39.84322886 63.21822886 43.22308709 62.91248381 45.875 63.25 C46.091024 68.21855203 45.50343748 72.55775941 44.44921875 77.41015625 C43.56181383 81.79888668 42.96566749 86.2276691 42.33984375 90.66015625 C41.875 93.25 41.875 93.25 40.875 94.25 C38.88483614 94.35009365 36.89111583 94.38081153 34.8984375 94.3828125 C33.66996094 94.38410156 32.44148438 94.38539063 31.17578125 94.38671875 C29.88027344 94.38285156 28.58476562 94.37898438 27.25 94.375 C25.34154297 94.38080078 25.34154297 94.38080078 23.39453125 94.38671875 C22.15832031 94.38542969 20.92210937 94.38414062 19.6484375 94.3828125 C18.51841309 94.38168457 17.38838867 94.38055664 16.22412109 94.37939453 C9.62528021 94.12444587 5.08502178 93.51274509 -0.125 89.25 C-2 86.5 -2 86.5 -3.125 84.25 C-3.6096875 84.63671875 -4.094375 85.0234375 -4.59375 85.421875 C-9.2219996 89.01766892 -13.81528316 91.79592919 -19.125 94.25 C-19.70830078 94.5907959 -20.29160156 94.9315918 -20.89257812 95.28271484 C-25.39958731 97.235555 -30.53732154 96.61944583 -35.375 96.625 C-36.48230469 96.64949219 -37.58960938 96.67398438 -38.73046875 96.69921875 C-46.78858228 96.72796351 -52.2925884 95.61568566 -58.40234375 90.25 C-58.95019531 89.59 -59.49804688 88.93 -60.0625 88.25 C-60.62839844 87.59 -61.19429688 86.93 -61.77734375 86.25 C-65.14788084 81.24792757 -64.46273297 75.05056371 -64.125 69.25 C-62.78224259 63.77568132 -60.24352771 58.92779157 -57.125 54.25 C-56.465 54.25 -55.805 54.25 -55.125 54.25 C-54.795 53.26 -54.465 52.27 -54.125 51.25 C-44.87705732 44.01612832 -34.27801568 40.38233632 -23.125 37.25 C-24.78214015 35.59285985 -26.87753147 35.80693912 -29.15625 35.53125 C-30.71472656 35.33982422 -30.71472656 35.33982422 -32.3046875 35.14453125 C-33.40039062 35.01433594 -34.49609375 34.88414063 -35.625 34.75 C-36.68976563 34.61980469 -37.75453125 34.48960938 -38.8515625 34.35546875 C-44.93863374 33.61514927 -51.0293674 32.91590944 -57.125 32.25 C-57.78631596 26.9594723 -56.17053852 24.09303382 -53.4140625 19.7890625 C-52.98867188 19.28117187 -52.56328125 18.77328125 -52.125 18.25 C-51.465 18.25 -50.805 18.25 -50.125 18.25 C-49.795 17.26 -49.465 16.27 -49.125 15.25 C-48.465 15.25 -47.805 15.25 -47.125 15.25 C-46.795 14.26 -46.465 13.27 -46.125 12.25 C-32.58827297 1.80499457 -16.4741531 0.10596744 0 0 Z M-14.125 30.25 C-15.47272903 33.37133744 -15.47272903 33.37133744 -16.125 36.25 C-14.208412 36.27712153 -12.2917127 36.29645097 -10.375 36.3125 C-9.30765625 36.32410156 -8.2403125 36.33570313 -7.140625 36.34765625 C-4.59131499 36.26510087 -2.54566409 35.99617558 -0.125 35.25 C-0.125 32.94 -0.125 30.63 -0.125 28.25 C-0.785 28.25 -1.445 28.25 -2.125 28.25 C-2.125 27.59 -2.125 26.93 -2.125 26.25 C-7.5900929 25.82136526 -10.34327885 26.14413133 -14.125 30.25 Z M-15.125 57.25 C-18.38879948 59.76061499 -20.09669995 62.23962979 -21.125 66.25 C-20.135 67.735 -20.135 67.735 -19.125 69.25 C-14.76991555 69.92001299 -12.67864819 69.5800595 -8.875 67.3125 C-5.32877636 64.03176904 -4.26071923 59.82276425 -3.125 55.25 C-7.60725832 53.75591389 -10.90743838 55.39335603 -15.125 57.25 Z " fill="#FEFEFE" transform="translate(324.125,63.75)"/>
<path d="M0 0 C0.96454102 0.00563965 1.92908203 0.0112793 2.92285156 0.01708984 C15.19527059 0.22597328 26.02021211 2.59646465 35.1953125 11.26953125 C42.93935137 19.74261144 45.55655946 28.93611311 45.125 40.3125 C44.75501818 43.12793035 44.23885019 45.90254044 43.6875 48.6875 C43.55279297 49.41066406 43.41808594 50.13382813 43.27929688 50.87890625 C42.26041667 56.17708333 42.26041667 56.17708333 41.125 57.3125 C39.2531906 57.40636381 37.3778194 57.42993804 35.50366211 57.42602539 C34.30249252 57.42594986 33.10132294 57.42587433 31.86375427 57.42579651 C30.5564888 57.42063522 29.24922333 57.41547394 27.90234375 57.41015625 C26.55855868 57.40829198 25.21477293 57.40686812 23.87098694 57.40586853 C20.32817723 57.40204402 16.7854083 57.39221432 13.24261475 57.38116455 C9.62984773 57.37094899 6.01707416 57.3663706 2.40429688 57.36132812 C-4.6888188 57.35059198 -11.78190674 57.33351636 -18.875 57.3125 C-18.38 61.7675 -18.38 61.7675 -17.875 66.3125 C-14.16897865 67.54784045 -11.77746386 67.76778745 -7.875 67.3125 C-4.05290054 64.92557623 -1.31329689 62.62739068 0.125 58.3125 C1.83399819 58.42805504 3.54219869 58.55543003 5.25 58.6875 C6.67699219 58.79191406 6.67699219 58.79191406 8.1328125 58.8984375 C11.34689713 59.34320639 14.04791156 60.27721791 17.125 61.3125 C20.90193055 62.25327658 24.7002731 63.09420577 28.5 63.9375 C30.03333984 64.28167969 30.03333984 64.28167969 31.59765625 64.6328125 C34.10616697 65.19546911 36.61527726 65.75527914 39.125 66.3125 C39.72436523 68.65844727 39.72436523 68.65844727 40.125 71.3125 C36.03311424 77.65643099 29.64292247 83.46739466 23.125 87.3125 C22.465 87.3125 21.805 87.3125 21.125 87.3125 C21.125 87.9725 21.125 88.6325 21.125 89.3125 C19.10570145 90.10807327 17.08448055 90.89876802 15.0625 91.6875 C13.93714844 92.12835938 12.81179687 92.56921875 11.65234375 93.0234375 C5.47848869 95.2796636 -0.06241783 96.6267734 -6.64453125 96.6484375 C-7.36557541 96.6550943 -8.08661957 96.6617511 -8.82951355 96.66860962 C-10.34635899 96.67867375 -11.86324816 96.68342859 -13.38012695 96.68310547 C-15.6714974 96.68746952 -17.96092351 96.72382609 -20.25195312 96.76171875 C-28.48121897 96.82526089 -35.49782422 96.33436861 -42.875 92.3125 C-43.77734375 91.84328125 -44.6796875 91.3740625 -45.609375 90.890625 C-53.37669654 85.77262243 -58.55206491 79.4827797 -60.875 70.3125 C-61.26256161 66.44811753 -61.25012726 62.63038504 -61.1875 58.75 C-61.19072266 57.74775391 -61.19394531 56.74550781 -61.19726562 55.71289062 C-61.15713826 50.17166661 -60.68283182 45.5485166 -58.875 40.3125 C-58.67519531 39.55324219 -58.47539062 38.79398438 -58.26953125 38.01171875 C-55.30866052 27.77783671 -48.07510892 18.96656251 -39.875 12.3125 C-37.60546875 11.56640625 -37.60546875 11.56640625 -35.875 11.3125 C-35.875 10.6525 -35.875 9.9925 -35.875 9.3125 C-33.58966962 8.17288192 -31.29796822 7.05113075 -29 5.9375 C-28.36835938 5.62039062 -27.73671875 5.30328125 -27.0859375 4.9765625 C-18.36593662 0.79096208 -9.57748907 -0.05882979 0 0 Z M-11.875 30.3125 C-12.865 32.6225 -13.855 34.9325 -14.875 37.3125 C-9.265 37.3125 -3.655 37.3125 2.125 37.3125 C2.75175864 31.47677711 2.75175864 31.47677711 -0.1875 28.4375 C-4.95794651 24.66551904 -7.55066606 26.79897867 -11.875 30.3125 Z " fill="#FEFEFE" transform="translate(209.875,63.6875)"/>
<path d="M0 0 C13.86 0 27.72 0 42 0 C42 9.00405132 42 9.00405132 41.37890625 12.17578125 C41.24806641 12.85833984 41.11722656 13.54089844 40.98242188 14.24414062 C40.84384766 14.92669922 40.70527344 15.60925781 40.5625 16.3125 C40.36043945 17.3653418 40.36043945 17.3653418 40.15429688 18.43945312 C39.58188136 21.36854519 38.94479852 24.16560444 38 27 C43.61 27 49.22 27 55 27 C55.21480059 33.65881837 54.52760518 39.52586378 53 46 C52.82082031 46.77214844 52.64164063 47.54429688 52.45703125 48.33984375 C51.18445122 53.63109756 51.18445122 53.63109756 50 56 C44.06 56 38.12 56 32 56 C31.814375 59.7125 31.814375 59.7125 31.625 63.5 C31.30257377 69.24925918 30.60082724 74.45046556 29 80 C29 81.32 29 82.64 29 84 C35.93 84.33 42.86 84.66 50 85 C48.74261568 96.40627202 47.15676225 106.96890518 44 118 C38.73470396 118.02485795 33.46944265 118.04293442 28.20410156 118.05493164 C26.41568404 118.05993714 24.62727057 118.06674355 22.83886719 118.07543945 C20.25715126 118.08767166 17.67548979 118.09326628 15.09375 118.09765625 C14.30383667 118.10281754 13.51392334 118.10797882 12.70007324 118.11329651 C3.72598579 118.11418816 -3.49081541 117.28753234 -11 112 C-13.4375 109.4375 -13.4375 109.4375 -15 107 C-15.35578125 106.45859375 -15.7115625 105.9171875 -16.078125 105.359375 C-17.43301447 101.89177652 -17.33785538 98.48200892 -17.3125 94.8125 C-17.31048584 94.02818604 -17.30847168 93.24387207 -17.30639648 92.43579102 C-16.94787089 70.94787089 -16.94787089 70.94787089 -13 67 C-12.60545777 65.15400312 -12.25823134 63.29774178 -11.9375 61.4375 C-11.628125 59.643125 -11.31875 57.84875 -11 56 C-15.95 56 -20.9 56 -26 56 C-26.22220512 49.17413637 -25.44646056 43.09805993 -24 36.4375 C-23.80921875 35.52419922 -23.6184375 34.61089844 -23.421875 33.66992188 C-22.95590731 31.44492616 -22.4790899 29.22220716 -22 27 C-16.72 26.67 -11.44 26.34 -6 26 C-5.81824219 24.62585938 -5.63648438 23.25171875 -5.44921875 21.8359375 C-5.19586556 20.01554794 -4.94192848 18.19523958 -4.6875 16.375 C-4.56955078 15.47136719 -4.45160156 14.56773438 -4.33007812 13.63671875 C-4.14155273 12.31220703 -4.14155273 12.31220703 -3.94921875 10.9609375 C-3.83924561 10.15446777 -3.72927246 9.34799805 -3.6159668 8.51708984 C-3 6 -3 6 0 0 Z " fill="#FEFEFE" transform="translate(693,40)"/>
<path d="M0 0 C1.87295532 -0.36076355 1.87295532 -0.36076355 4.17431641 -0.34057617 C5.46542831 -0.34023628 5.46542831 -0.34023628 6.78262329 -0.33988953 C7.71287323 -0.32440567 8.64312317 -0.30892181 9.6015625 -0.29296875 C10.55316254 -0.28872391 11.50476257 -0.28447906 12.48519897 -0.28010559 C15.53208414 -0.26327896 18.57831391 -0.22561954 21.625 -0.1875 C23.68749046 -0.17245831 25.74999127 -0.15876901 27.8125 -0.14648438 C32.8752535 -0.11336239 37.93751554 -0.06155284 43 0 C43.01190051 1.58201275 43.02033787 3.16405176 43.02734375 4.74609375 C43.03241943 5.6270874 43.03749512 6.50808105 43.04272461 7.41577148 C42.89913545 16.10086455 42.89913545 16.10086455 41 18 C40.49716178 20.97765045 40.04531488 23.9479519 39.625 26.9375 C39.3592075 28.7657903 39.09225554 30.59391237 38.82421875 32.421875 C38.68806152 33.35193359 38.5519043 34.28199219 38.41162109 35.24023438 C37.03754805 44.45288069 35.61987164 53.67291598 33.46484375 62.73828125 C32.59366432 66.97704504 32.0904193 71.27679833 31.50390625 75.5625 C30.94943143 79.3449639 30.22725616 83.0656857 29.4375 86.8046875 C29.02247123 88.88724258 28.71025344 90.95718438 28.4375 93.0625 C28 96 28 96 27 97 C26.72672804 98.5591258 26.50910304 100.12809853 26.31640625 101.69921875 C26.19330078 102.66150391 26.07019531 103.62378906 25.94335938 104.61523438 C25.69189677 106.64369943 25.44186793 108.6723428 25.19335938 110.70117188 C25.06896484 111.66990234 24.94457031 112.63863281 24.81640625 113.63671875 C24.70756104 114.52061279 24.59871582 115.40450684 24.48657227 116.31518555 C24 119 24 119 22 125 C7.48 125 -7.04 125 -22 125 C-20.88617886 111.63414634 -20.88617886 111.63414634 -19.75 106.125 C-18.16150156 98.13261268 -16.82603297 90.10199071 -15.5 82.0625 C-12.62123634 64.65676525 -9.59352089 47.28499369 -6.21484375 29.96875 C-5.95492412 28.62515549 -5.69580535 27.28140579 -5.4375 25.9375 C-5.24909546 24.95765137 -5.24909546 24.95765137 -5.05688477 23.95800781 C-3.94278756 18.00535624 -3.1987603 12.02888989 -2.52734375 6.01171875 C-2 3 -2 3 0 0 Z " fill="#FEFEFE" transform="translate(399,33)"/>
<path d="M0 0 C-0.38872168 9.32932032 -1.42229236 18.19767839 -3.28125 27.34375 C-4.04930597 31.01678078 -4.04930597 31.01678078 -4.46875 34.84375 C-5 38 -5 38 -7 40 C-9.11962891 40.16357422 -9.11962891 40.16357422 -11.7265625 40.0546875 C-12.67660156 40.03019531 -13.62664062 40.00570312 -14.60546875 39.98046875 C-16.59537187 39.91096373 -18.58500138 39.83303967 -20.57421875 39.74609375 C-28.5509157 39.56358521 -33.36510641 41.35644103 -39.75 46 C-45.31190032 53.41586709 -46.44801895 62.68518763 -47.56640625 71.671875 C-48.04411478 75.33861076 -48.74112515 78.91420522 -49.53515625 82.5234375 C-50.18564686 85.98907656 -50.5626339 89.50107116 -51 93 C-66.18 93 -81.36 93 -97 93 C-97 87.13543537 -96.7780182 83.03671447 -95.5625 77.5 C-94.68078504 73.3877141 -93.83578806 69.30986209 -93.375 65.125 C-93 62 -93 62 -92 61 C-91.72653686 59.47623271 -91.50899313 57.94233565 -91.31640625 56.40625 C-91.19330078 55.4575 -91.07019531 54.50875 -90.94335938 53.53125 C-90.81767578 52.5309375 -90.69199219 51.530625 -90.5625 50.5 C-89.79967519 44.42969039 -88.95363829 38.47178624 -87.55541992 32.51416016 C-86.30645353 26.86059714 -85.37830169 21.13874353 -84.375 15.4375 C-83.59125 11.003125 -82.8075 6.56875 -82 2 C-67.48 2 -52.96 2 -38 2 C-38 6.96762993 -38.21153068 11.1706254 -39 16 C-38.319375 14.7625 -38.319375 14.7625 -37.625 13.5 C-37.08875 12.675 -36.5525 11.85 -36 11 C-35.34 11 -34.68 11 -34 11 C-33.773125 10.4225 -33.54625 9.845 -33.3125 9.25 C-31.64018419 6.3831729 -29.72780269 4.86288964 -27 3 C-26.01 3 -25.02 3 -24 3 C-24 2.34 -24 1.68 -24 1 C-16.29752422 -1.36999255 -7.8473223 -2.33551259 0 0 Z " fill="#FEFEFE" transform="translate(661,65)"/>
</svg>
